<?xml version="1.0" encoding="utf-8"?>
<!-- Generator: Adobe Illustrator 19.1.0, SVG Export Plug-In . SVG Version: 6.00 Build 0)  -->
<!DOCTYPE svg PUBLIC "-//W3C//DTD SVG 1.1//EN" "http://www.w3.org/Graphics/SVG/1.1/DTD/svg11.dtd">
<svg version="1.1" id="Layer_1" xmlns="http://www.w3.org/2000/svg" xmlns:xlink="http://www.w3.org/1999/xlink" x="0px" y="0px"
	 viewBox="0 0 198.8 438.1" enable-background="new 0 0 198.8 438.1" xml:space="preserve">
<g>
	<linearGradient id="SVGID_1_" gradientUnits="userSpaceOnUse" x1="128.3119" y1="-46.7852" x2="72.904" y2="129.5124">
		<stop  offset="0.336" style="stop-color:#46BAEB"/>
		<stop  offset="0.5672" style="stop-color:#26A8E0"/>
		<stop  offset="0.7473" style="stop-color:#137FAE"/>
		<stop  offset="0.9839" style="stop-color:#0A5674"/>
	</linearGradient>
	<path fill="url(#SVGID_1_)" d="M99.4,90.3c24.9,0,45.2-20.3,45.2-45.1C144.6,20.2,124.3,0,99.4,0C74.5,0,54.3,20.2,54.3,45.1
		C54.3,70,74.5,90.3,99.4,90.3z"/>
	<linearGradient id="SVGID_2_" gradientUnits="userSpaceOnUse" x1="117.5546" y1="19.0714" x2="78.1141" y2="483.0733">
		<stop  offset="0.2101" style="stop-color:#46BAEB"/>
		<stop  offset="0.4182" style="stop-color:#26A8E0"/>
		<stop  offset="0.7504" style="stop-color:#137FAE"/>
		<stop  offset="0.8457" style="stop-color:#137DAA"/>
		<stop  offset="0.8961" style="stop-color:#1376A0"/>
		<stop  offset="0.936" style="stop-color:#126B91"/>
		<stop  offset="0.9701" style="stop-color:#0E5D7E"/>
		<stop  offset="0.9839" style="stop-color:#0A5674"/>
	</linearGradient>
	<path fill="url(#SVGID_2_)" d="M198.6,231.4c0.3-0.8,0.3-1.7,0.1-2.6L178,119c-1.7-10.3-10.4-17.7-20.8-17.7H41.6
		c-10.4,0-19.1,7.5-20.7,17.6l-20.7,110c-0.2,0.9-0.1,1.8,0.1,2.6c-0.2,1-0.2,2-0.2,2.9c0,11.6,9.5,21.1,21.1,21.1
		c10.2,0,18.9-7.3,20.7-17.4l13.1-81.7L54.7,417c0,11.6,9.5,21.1,21.1,21.1c11.6,0,21.1-9.5,21.1-21.1V288h5v129
		c0,11.6,9.5,21.1,21.1,21.1s21.1-9.5,21.1-21.1l-0.2-260.6l13.1,81.8c1.8,10,10.5,17.3,20.7,17.3c11.6,0,21.1-9.5,21.1-21.1
		C198.8,233.4,198.7,232.4,198.6,231.4z"/>
</g>
</svg>
