<?xml version="1.0" encoding="UTF-8" standalone="no"?>
<!-- Created with Inkscape (http://www.inkscape.org/) -->
<svg
   xmlns:dc="http://purl.org/dc/elements/1.1/"
   xmlns:cc="http://web.resource.org/cc/"
   xmlns:rdf="http://www.w3.org/1999/02/22-rdf-syntax-ns#"
   xmlns:svg="http://www.w3.org/2000/svg"
   xmlns="http://www.w3.org/2000/svg"
   xmlns:sodipodi="http://sodipodi.sourceforge.net/DTD/sodipodi-0.dtd"
   xmlns:inkscape="http://www.inkscape.org/namespaces/inkscape"
   width="2000"
   height="1500"
   id="svg2253"
   sodipodi:version="0.32"
   inkscape:version="0.45.1"
   version="1.0"
   sodipodi:docbase="C:\Documents and Settings\Joaquín Marquez\Escritorio"
   sodipodi:docname="Blank_map_of_Ukraine.svg"
   inkscape:output_extension="org.inkscape.output.svg.inkscape">
  <defs
     id="defs2255" />
  <sodipodi:namedview
     id="base"
     pagecolor="#ffffff"
     bordercolor="#666666"
     borderopacity="1.0"
     inkscape:pageopacity="0.0"
     inkscape:pageshadow="2"
     inkscape:zoom="0.12374369"
     inkscape:cx="960.47549"
     inkscape:cy="426.39096"
     inkscape:document-units="px"
     inkscape:current-layer="layer1"
     width="2000px"
     height="1500px"
     inkscape:window-width="809"
     inkscape:window-height="573"
     inkscape:window-x="132"
     inkscape:window-y="161" />
  <metadata
     id="metadata2258">
    <rdf:RDF>
      <cc:Work
         rdf:about="">
        <dc:format>image/svg+xml</dc:format>
        <dc:type
           rdf:resource="http://purl.org/dc/dcmitype/StillImage" />
      </cc:Work>
    </rdf:RDF>
  </metadata>
  <g
     inkscape:label="Capa 1"
     inkscape:groupmode="layer"
     id="layer1">
    <path
       id="ua"
       class="europe"
       d="M 1863.0115,749.40627 L 1863.0115,748.10024 C 1852.5619,736.34445 1859.0928,732.42592 1861.7051,720.67013 C 1864.3175,706.30212 1846.0308,724.58866 1846.0308,716.75144 C 1847.337,707.60831 1839.4999,676.25963 1843.4184,668.42241 C 1844.7246,668.42241 1882.6042,633.15537 1882.6042,633.15537 C 1885.2165,627.93049 1878.6856,621.39958 1878.6856,616.17486 C 1877.3794,610.94998 1876.0731,604.41907 1879.9917,599.19435 C 1899.5847,575.68293 1960.9757,586.13237 1979.2624,558.70242 C 1983.1809,553.47754 1976.65,545.64048 1974.0376,539.10957 C 1972.7315,536.49719 1967.5066,535.191 1967.5066,532.57862 C 1967.5066,528.66009 1975.3438,528.66009 1975.3438,526.04759 C 1975.3438,522.12906 1970.119,519.51668 1968.8129,515.59815 C 1967.5066,509.06708 1968.8129,501.22998 1970.119,493.39276 C 1970.119,490.78054 1974.0376,488.16804 1974.0376,485.55566 C 1979.2624,469.88146 1955.7509,484.24947 1955.7509,484.24947 C 1951.8324,481.63713 1959.6695,475.10622 1958.3633,469.88146 C 1953.1386,460.73805 1945.3013,451.59464 1938.7704,443.75754 C 1929.627,434.61441 1915.259,456.81952 1913.9528,442.45139 C 1907.4219,400.65327 1911.3404,412.40906 1934.8517,401.95958 C 1936.1581,400.65327 1946.6075,378.44804 1938.7704,381.06038 C 1920.4839,384.97895 1911.3404,398.04089 1895.6661,384.97895 C 1878.6856,370.61078 1908.7279,366.69225 1912.6465,360.16134 C 1916.5652,356.24277 1911.3404,349.71174 1912.6465,345.79317 C 1916.5652,328.8127 1932.2395,319.66953 1916.5652,302.68902 C 1911.3404,296.15799 1902.197,294.8518 1896.9723,289.62708 C 1890.4413,281.78986 1906.1156,264.80935 1895.6661,263.50316 C 1870.8485,262.19713 1886.5227,283.09601 1866.93,287.0147 C 1800.3141,297.46418 1883.9105,277.87129 1830.3566,268.72788 C 1813.3761,266.1155 1812.0699,285.70839 1797.7018,276.5651 C 1792.477,273.95276 1788.5585,267.42185 1784.6398,263.50316 C 1772.8842,255.66594 1778.1089,285.70839 1763.7407,285.70839 C 1754.5975,285.70839 1745.4541,283.09601 1736.3108,279.17748 C 1732.3923,276.5651 1729.7798,267.42185 1724.555,268.72788 C 1718.0241,268.72788 1715.4117,281.78986 1707.5746,281.78986 C 1698.4312,281.78986 1691.9003,272.64641 1681.4507,271.34038 C 1647.4897,266.1155 1698.4312,317.05691 1663.164,310.52612 C 1654.0207,309.21981 1651.4082,297.46418 1643.5712,293.54561 C 1638.3464,290.93327 1630.5093,294.8518 1623.9783,292.23946 C 1604.3854,285.70839 1590.0174,260.89078 1573.0369,247.82896 C 1567.8122,243.91027 1519.483,293.54561 1502.5025,317.05691 C 1497.2778,324.89413 1484.2158,310.52612 1475.0726,309.21981 C 1469.8478,309.21981 1469.8478,317.05691 1465.9293,319.66953 C 1459.3984,323.58794 1454.1735,307.91378 1446.3364,305.30128 C 1414.9876,297.46418 1408.4568,343.18083 1386.2515,331.4252 C 1377.1082,327.50651 1369.2711,322.28179 1362.7401,315.75084 C 1357.5152,310.52612 1352.2906,303.99521 1350.9844,296.15799 C 1350.9844,292.23946 1358.8215,290.93327 1357.5152,287.0147 C 1357.5152,281.78986 1323.5543,251.74737 1322.2481,247.82896 C 1320.9419,243.91027 1328.7792,237.37936 1326.1667,234.76702 C 1324.8605,233.46083 1322.2481,233.46083 1320.9419,233.46083 C 1315.7173,234.76702 1311.7986,238.68555 1306.5739,238.68555 C 1297.4305,239.99174 1296.1243,224.31742 1290.8996,217.78651 C 1289.5934,215.17413 1286.981,215.17413 1284.3685,216.48032 C 1279.1438,219.09266 1251.7137,236.07317 1246.4892,236.07317 C 1243.8766,237.37936 1243.8766,229.54226 1239.9581,229.54226 C 1230.8148,229.54226 1221.6714,230.84833 1213.8343,233.46083 C 1211.2218,234.76702 1203.3847,253.05368 1196.8538,239.99174 C 1195.5476,237.37936 1200.7723,234.76702 1200.7723,232.15464 C 1202.0787,228.23595 1202.0787,223.01123 1199.4662,220.39885 C 1195.5476,216.48032 1190.3227,219.09266 1186.4042,215.17413 C 1179.8733,211.25544 1187.7105,198.1935 1182.4856,192.9689 C 1177.2609,186.43783 1158.9742,182.5193 1162.8928,174.6822 C 1168.1176,168.15129 1198.1601,161.62026 1190.3227,149.86447 C 1179.8733,134.19027 1155.0557,135.49646 1147.2184,128.96539 C 1141.9937,125.04686 1138.0752,119.82214 1136.7691,114.59742 C 1134.1566,109.37254 1138.0752,102.84163 1135.4628,100.22925 C 1130.2381,95.004534 1122.4009,95.004534 1117.1761,91.086004 C 1109.3389,85.861244 1105.4204,75.411684 1096.2771,74.105494 C 1085.8275,71.493114 1081.9091,95.004534 1070.1533,95.004534 C 1066.2347,95.004534 1067.5409,85.861244 1063.6222,85.861244 C 1012.6809,81.942714 1044.0293,110.67885 1013.987,123.74083 C 1013.987,123.74083 957.82077,127.65936 956.51458,127.65936 C 953.90224,127.65936 963.04565,166.84498 951.28986,178.60077 C 943.45264,185.1318 934.30935,191.66271 923.85975,192.9689 C 919.94134,192.9689 921.24741,185.1318 917.32884,182.5193 C 914.7165,181.21327 910.79793,187.74418 908.18559,186.43783 C 893.81742,190.35652 876.83691,189.05033 865.08116,196.88743 C 859.8564,199.49981 862.46894,208.6431 857.24406,211.25544 C 849.40696,215.17413 838.95752,211.25544 829.81407,213.86794 C 824.58923,215.17413 815.44594,228.23595 808.91503,264.80935 C 807.60872,273.95276 804.9965,298.77037 804.9965,309.21981 C 804.9965,323.58794 857.24406,358.85515 824.58923,365.38622 C 790.62833,373.22328 806.30265,340.56845 776.2602,337.95611 C 716.17539,334.03754 788.01599,348.40571 744.91169,356.24277 C 738.38066,357.54896 731.84975,348.40571 724.01265,349.71174 C 703.11345,354.93662 714.86924,377.14197 696.58254,382.36657 C 686.13306,384.97895 675.68362,348.40571 665.23402,343.18083 C 654.78442,337.95611 643.02879,356.24277 635.19157,366.69225 C 629.96681,373.22328 640.41629,392.81617 632.57919,391.50998 C 605.14924,384.97895 645.64117,392.81617 611.68015,369.30475 C 593.39345,356.24277 599.92436,382.36657 588.16873,382.36657 C 555.5139,382.36657 584.25004,370.61078 572.49441,362.77368 C 564.65731,358.85515 564.65731,378.44804 559.43243,383.67276 C 551.59533,392.81617 539.83954,381.06038 533.30863,382.36657 C 526.7776,382.36657 533.30863,405.87811 526.7776,409.79668 C 525.47141,412.40906 521.55288,408.49049 518.94066,405.87811 C 501.96015,396.7347 548.98299,374.52935 496.73527,388.89764 C 481.06095,392.81617 504.57237,413.71521 471.91754,400.65327 C 467.99897,399.34708 475.83623,391.50998 473.22385,388.89764 C 470.61147,386.2851 465.38663,392.81617 462.77437,391.50998 C 454.93731,384.97895 465.38663,371.91713 451.01862,375.83566 C 420.97613,383.67276 380.48437,387.59129 347.82954,383.67276 C 343.91097,382.36657 342.60478,377.14197 338.68613,377.14197 C 320.39954,375.83566 302.11272,387.59129 282.51999,390.20367 C 275.98892,390.20367 269.45801,390.20367 262.9271,390.20367 C 256.39607,390.20367 249.86516,387.59129 243.33409,388.89764 C 226.35374,394.1222 214.59795,407.18418 198.92363,413.71521 C 188.47419,417.63378 175.41221,415.0214 164.96277,420.24612 C 159.73801,424.16481 141.45119,485.55566 128.38953,481.63713 C 124.47084,480.33094 124.47084,473.80003 121.85834,473.80003 C 114.02124,472.49384 104.87795,472.49384 98.346922,475.10622 C 77.447846,481.63713 108.79652,493.39276 93.122162,497.31145 L 91.816012,498.61764 C 91.816012,498.61764 91.816012,497.31145 91.816012,497.31145 C 95.734661,502.53617 100.95926,506.4547 103.57176,511.67958 C 106.18414,519.51668 100.95926,528.66009 103.57176,535.191 C 115.32755,560.00861 153.20698,584.82634 174.1059,600.50054 C 178.02459,604.41907 147.98226,603.11288 154.51317,616.17486 C 155.81932,617.48105 181.94312,640.99247 181.94312,651.44191 C 178.02459,698.4649 163.65658,669.7286 140.14516,689.32149 C 129.69556,698.4649 50.017897,846.06445 53.936427,856.51405 C 56.548807,870.88218 69.610747,881.33166 73.529316,894.3936 C 74.835506,900.92451 64.385907,910.0678 69.610747,915.29268 C 91.816012,942.72263 78.754036,890.47491 94.428352,940.11041 C 95.734661,942.72263 90.509826,936.19172 87.897446,934.88553 C 81.366416,933.57922 74.835506,936.19172 68.304437,936.19172 C 64.385907,934.88553 59.161306,934.88553 55.242776,933.57922 C 56.548807,946.64116 47.405517,964.92786 46.099327,977.98984 C 44.793177,987.13309 46.099327,996.27654 42.180797,1004.1136 C 38.262267,1013.257 26.506478,1015.8694 25.200288,1025.0127 C 22.587908,1034.1561 29.118818,1043.2992 29.118818,1053.7488 C 59.161306,1055.0551 39.568298,1069.4232 60.467496,1077.2604 C 64.385907,1078.5666 69.610747,1072.0355 73.529316,1074.648 C 81.366416,1079.8728 82.672726,1092.9347 90.509826,1098.1595 C 95.734661,1099.4656 99.653231,1092.9347 104.87795,1091.6285 C 108.79652,1091.6285 112.71505,1094.2409 115.32755,1095.5471 C 132.30806,1107.3029 111.40886,1104.6904 127.08318,1117.7523 C 131.00175,1120.3647 138.83885,1115.14 147.98226,1090.3224 C 149.28841,1087.71 149.28841,1083.7914 151.90079,1083.7914 C 155.81932,1083.7914 188.47419,1099.4656 192.39272,1099.4656 C 195.0051,1099.4656 196.31125,1092.9347 198.92363,1091.6285 C 215.90414,1085.0975 259.00857,1102.078 279.90749,1096.8533 C 291.6634,1092.9347 299.5005,1082.4851 311.25613,1081.1789 C 332.15521,1079.8728 346.52319,1107.3029 360.89136,1111.2213 C 380.48437,1117.7523 387.01528,1081.1789 392.24,1075.9541 C 415.75141,1051.1366 475.83623,1053.7488 494.12289,1035.4623 C 529.38994,1001.5013 478.44857,1030.2375 503.2663,997.58269 C 509.79721,989.74559 520.24681,983.21456 530.69629,980.60218 L 532.00248,976.68365 L 537.2272,964.92786 C 537.2272,963.62167 537.2272,962.31552 537.2272,962.31552 L 538.53339,957.09076 L 551.59533,959.70314 C 550.28914,957.09076 547.6768,954.47826 547.6768,951.86604 C 547.6768,950.55973 597.31198,944.02882 599.92436,942.72263 C 624.74209,930.967 616.90487,911.37411 652.17208,913.98649 C 666.54021,915.29268 682.21453,920.5174 693.97016,929.66065 C 697.88873,932.27319 693.97016,941.41644 697.88873,941.41644 C 707.03214,941.41644 716.17539,932.27319 726.62499,930.967 C 731.84975,929.66065 725.31868,942.72263 726.62499,947.94735 C 729.23737,958.39695 735.76828,938.8041 738.38066,941.41644 C 742.29919,946.64116 742.29919,953.17223 746.21772,957.09076 C 751.4426,962.31552 746.21772,940.11041 754.05498,937.49775 C 798.46543,925.74212 778.87258,951.86604 810.22134,964.92786 C 823.28304,970.15258 814.13975,944.02882 825.89554,950.55973 C 855.93775,970.15258 835.03883,997.58269 844.18224,1026.319 C 845.48843,1032.8499 878.1431,1056.3612 885.98036,1058.9737 C 901.65452,1064.1984 882.06167,1035.4623 900.34833,1045.9119 C 923.85975,1058.9737 893.81742,1095.5471 910.79793,1085.0975 C 917.32884,1081.1789 913.41015,1102.078 918.63503,1107.3029 C 926.47213,1112.5275 959.12696,1113.8336 966.96418,1120.3647 L 980.026,1160.8567 C 980.026,1163.469 972.18894,1163.469 973.49525,1166.0813 C 976.10747,1175.2246 1006.15,1179.1433 1006.15,1180.4495 C 998.3127,1185.6742 989.16945,1186.9804 982.63838,1192.2052 C 980.026,1194.8176 981.33219,1197.43 980.026,1200.0423 C 973.49525,1206.5733 966.96418,1181.7557 956.51458,1181.7557 C 948.67752,1181.7557 956.51458,1206.5733 948.67752,1205.2672 C 943.45264,1203.9609 926.47213,1190.8989 926.47213,1190.8989 C 923.85975,1194.8176 925.16594,1202.6547 919.94134,1203.9609 C 917.32884,1205.2672 916.02281,1194.8176 914.7165,1197.43 C 908.18559,1202.6547 909.49162,1211.7981 905.57321,1217.0229 C 904.26702,1218.329 901.65452,1217.0229 900.34833,1215.7165 C 900.34833,1213.1043 902.96083,1211.7981 902.96083,1209.1858 C 901.65452,1202.6547 899.0423,1196.1238 896.4298,1190.8989 C 891.20508,1181.7557 879.44929,1201.3485 872.91838,1209.1858 C 854.63184,1230.0847 887.28651,1240.5343 889.89889,1250.9839 C 891.20508,1257.5148 884.67401,1264.0457 884.67401,1270.5767 C 884.67401,1277.1075 892.51127,1282.3324 889.89889,1287.5571 C 887.28651,1292.7818 878.1431,1292.7818 872.91838,1298.0067 C 861.16259,1307.15 879.44929,1312.3748 872.91838,1321.5181 C 867.6935,1328.0492 859.8564,1331.9677 855.93775,1337.1923 C 844.18224,1355.4792 863.77497,1384.2153 854.63184,1385.5216 C 848.10077,1386.8276 841.56986,1384.2153 835.03883,1385.5216 L 836.34498,1385.5216 L 829.81407,1394.6647 C 829.81407,1398.5833 828.50792,1402.502 825.89554,1401.1958 C 828.50792,1402.502 832.42645,1399.8896 835.03883,1402.502 C 838.95752,1406.4205 837.65117,1414.2577 842.87605,1418.1763 C 848.10077,1423.401 904.26702,1426.0134 902.96083,1419.4825 C 902.96083,1418.1763 884.67401,1414.2577 897.73599,1406.4205 C 905.57321,1402.502 914.7165,1403.8081 922.5536,1399.8896 C 935.61554,1393.3587 940.84042,1375.072 955.20843,1369.8472 C 983.94457,1359.3977 998.3127,1369.8472 1004.8438,1394.6647 C 1007.4561,1386.8276 1017.9057,1356.7853 1002.2314,1351.5605 C 999.61889,1350.2543 1003.5374,1356.7853 1000.9251,1356.7853 C 999.61889,1358.0915 999.61889,1352.8668 998.3127,1351.5605 C 990.47548,1348.9481 995.70036,1372.4597 986.55691,1355.4792 C 978.71985,1343.7234 980.026,1325.4367 978.71985,1312.3748 C 978.71985,1307.15 969.57656,1294.088 974.80128,1296.7004 C 986.55691,1300.6191 983.94457,1330.6614 995.70036,1326.7429 C 1034.8862,1311.0687 1008.7623,1307.15 1008.7623,1290.1695 C 1008.7623,1287.5571 1011.3747,1295.3943 1013.987,1294.088 C 1017.9057,1292.7818 1007.4561,1282.3324 1011.3747,1279.7202 C 1017.9057,1277.1075 1025.7428,1282.3324 1032.2736,1279.7202 C 1037.4984,1278.4138 1041.417,1273.189 1044.0293,1267.9642 C 1054.4789,1244.4528 1066.2347,1215.7165 1074.0718,1189.5929 C 1075.378,1184.368 1064.9284,1179.1433 1067.5409,1173.9184 C 1068.8471,1169.9999 1076.6842,1168.6937 1079.2967,1164.7753 C 1088.4398,1147.7948 1062.3162,1150.4071 1072.7656,1136.039 C 1101.5018,1099.4656 1140.6877,1115.14 1140.6877,1103.3843 C 1141.9937,1092.9347 1127.6257,1078.5666 1136.7691,1072.0355 C 1143.2999,1066.8108 1139.3815,1092.9347 1148.5248,1098.1595 C 1152.4433,1102.078 1157.668,1091.6285 1164.1989,1090.3224 C 1170.73,1089.016 1178.5671,1090.3224 1186.4042,1089.016 C 1203.3847,1086.4037 1182.4856,1057.6675 1182.4856,1057.6675 C 1181.1796,1041.9932 1194.2413,1044.6055 1186.4042,1031.5436 C 1190.3227,1031.5436 1194.2413,1030.2375 1194.2413,1032.8499 C 1195.5476,1108.6089 1238.6521,1083.7914 1279.1438,1056.3612 C 1284.3685,1052.4426 1267.3882,1065.5046 1262.1633,1070.7295 C 1255.6323,1078.5666 1264.7757,1092.9347 1253.0199,1094.2409 C 1230.8148,1098.1595 1205.9972,1099.4656 1183.792,1102.078 C 1182.4856,1102.078 1149.8308,1102.078 1153.7493,1105.9966 C 1161.5866,1112.5275 1169.4238,1121.6709 1179.8733,1124.2832 C 1183.792,1125.5894 1177.2609,1113.8336 1181.1796,1112.5275 C 1189.0167,1108.6089 1198.1601,1113.8336 1207.3033,1112.5275 C 1209.9158,1112.5275 1220.3652,1105.9966 1221.6714,1113.8336 C 1224.2838,1126.8956 1191.6291,1136.039 1200.7723,1145.1823 C 1204.6909,1150.4071 1250.4077,1139.9575 1256.9386,1141.2637 C 1260.8571,1142.5699 1256.9386,1151.7133 1260.8571,1153.0195 C 1270.0005,1156.938 1281.7562,1158.2441 1292.2058,1154.3257 C 1302.6554,1151.7133 1307.8801,1138.6514 1317.0234,1134.7328 C 1326.1667,1129.508 1337.9224,1132.1205 1345.7595,1128.2019 C 1348.372,1126.8956 1343.1472,1120.3647 1345.7595,1119.0585 C 1348.372,1116.4461 1353.5968,1122.9771 1356.2091,1121.6709 C 1362.7401,1119.0585 1358.8215,1100.7717 1365.3526,1103.3843 C 1377.1082,1105.9966 1387.5576,1130.8141 1396.7011,1122.9771 C 1403.232,1116.4461 1401.9259,1104.6904 1409.763,1099.4656 C 1431.9681,1086.4037 1408.4568,1121.6709 1422.8248,1134.7328 C 1428.0496,1138.6514 1441.1115,1122.9771 1439.8053,1129.508 C 1439.8053,1133.4265 1399.3134,1175.2246 1391.4763,1179.1433 C 1387.5576,1180.4495 1383.6391,1173.9184 1379.7206,1176.5309 C 1378.4144,1179.1433 1386.2515,1181.7557 1384.9453,1184.368 C 1384.9453,1184.368 1357.5152,1209.1858 1356.2091,1209.1858 C 1353.5968,1211.7981 1350.9844,1215.7165 1349.6782,1219.6351 C 1349.6782,1222.2477 1353.5968,1223.5538 1353.5968,1224.86 C 1352.2906,1226.1663 1305.2676,1258.821 1322.2481,1265.3519 C 1354.903,1278.4138 1348.372,1256.2086 1375.802,1256.2086 C 1384.9453,1257.5148 1413.6815,1281.0262 1422.8248,1277.1075 C 1434.5806,1273.189 1443.7239,1258.821 1459.3984,1274.4953 C 1494.6654,1311.0687 1464.623,1305.8438 1471.154,1326.7429 C 1477.6849,1345.0296 1486.8282,1351.5605 1485.522,1352.8668 C 1480.2973,1358.0915 1462.0106,1358.0915 1464.623,1365.9286 C 1468.5416,1375.072 1485.522,1369.8472 1494.6654,1373.7657 C 1503.8088,1376.3782 1503.8088,1385.5216 1515.5645,1385.5216 C 1580.874,1377.6844 1567.8122,1301.9252 1609.6103,1273.189 C 1617.4474,1266.6582 1625.2845,1261.4333 1635.7341,1260.1271 C 1640.9588,1260.1271 1647.4897,1266.6582 1651.4082,1264.0457 C 1660.5517,1254.9024 1652.7144,1236.6157 1661.8578,1228.7785 C 1671.0012,1222.2477 1676.226,1224.86 1678.8383,1213.1043 C 1680.1445,1211.7981 1676.226,1213.1043 1674.9198,1211.7981 C 1668.3887,1205.2672 1678.8383,1192.2052 1682.7569,1190.8989 C 1689.2879,1186.9804 1698.4312,1186.9804 1706.2683,1188.2866 C 1714.1054,1189.5929 1719.3303,1200.0423 1727.1674,1198.7362 C 1736.3108,1197.43 1738.9232,1185.6742 1746.7603,1181.7557 C 1753.2913,1179.1433 1761.1285,1181.7557 1767.6593,1179.1433 C 1793.7832,1169.9999 1772.8842,1145.1823 1775.4965,1124.2832 C 1778.1089,1113.8336 1793.7832,1103.3843 1787.2522,1095.5471 C 1787.2522,1095.5471 1733.6984,1105.9966 1732.3923,1107.3029 C 1724.555,1112.5275 1731.0861,1128.2019 1723.2488,1132.1205 C 1718.0241,1134.7328 1711.4932,1132.1205 1706.2683,1129.508 C 1702.3498,1128.2019 1703.6561,1120.3647 1699.7375,1120.3647 C 1690.5941,1120.3647 1698.4312,1139.9575 1693.2065,1147.7948 C 1686.6756,1154.3257 1680.1445,1162.1626 1671.0012,1164.7753 C 1648.7959,1171.3061 1575.6493,1100.7717 1563.8935,1085.0975 C 1559.9749,1081.1789 1541.6882,1048.5241 1544.3006,1045.9119 C 1552.1378,1040.687 1559.9749,1060.2799 1569.1184,1058.9737 C 1599.1607,1053.7488 1591.3235,993.66416 1603.0793,975.37746 C 1606.9978,970.15258 1614.8349,968.84655 1617.4474,963.62167 C 1623.9783,954.47826 1623.9783,942.72263 1630.5093,934.88553 C 1650.1022,908.76161 1660.5517,911.37411 1677.5322,919.21121 C 1678.8383,920.5174 1678.8383,916.59883 1680.1445,915.29268 C 1691.9003,902.2307 1677.5322,877.41297 1708.8807,876.10678 C 1719.3303,874.80075 1725.8612,895.69979 1733.6984,890.47491 C 1742.8417,885.25019 1731.0861,869.57599 1735.0046,859.12643 C 1735.0046,856.51405 1765.0471,822.55319 1766.3531,822.55319 C 1771.5778,819.94065 1778.1089,833.00247 1780.7212,829.08394 C 1783.3336,825.16553 1784.6398,789.89832 1792.477,783.36729 C 1802.9265,775.53019 1835.5812,762.46825 1848.6432,759.85587 C 1852.5619,759.85587 1853.868,772.91781 1856.4804,768.99928 C 1860.399,763.77456 1859.0928,754.63115 1863.0115,749.40627 z "
       style="opacity:1;fill:#c0c0c0;stroke:#d1d1d1;stroke-width:11.29100037;stroke-linecap:round;stroke-linejoin:round;marker-start:none;stroke-miterlimit:4;stroke-dasharray:none;stroke-opacity:1;display:inline" />
  </g>
</svg>
